<svg xmlns="http://www.w3.org/2000/svg" xmlns:xlink="http://www.w3.org/1999/xlink" width="1366" zoomAndPan="magnify" viewBox="0 0 1024.5 576" height="768" preserveAspectRatio="xMidYMid meet" version="1.0"><defs><clipPath id="582d5f92ae"><path d="M 2 0.140625 L 897 0.140625 L 897 25 L 2 25 Z M 2 0.140625 " clip-rule="nonzero"/></clipPath><clipPath id="c342ebd3d7"><path d="M 3 0.140625 L 30 0.140625 L 30 476 L 3 476 Z M 3 0.140625 " clip-rule="nonzero"/></clipPath><clipPath id="97753bb448"><path d="M 104 552 L 1022 552 L 1022 575.859375 L 104 575.859375 Z M 104 552 " clip-rule="nonzero"/></clipPath><clipPath id="789af4c80c"><path d="M 995 95 L 1021 95 L 1021 575.859375 L 995 575.859375 Z M 995 95 " clip-rule="nonzero"/></clipPath></defs><g clip-path="url(#582d5f92ae)"><path stroke-linecap="butt" transform="matrix(0.749807, 0.000971808, -0.000972058, 0.749999, 15.554831, 9.489246)" fill="none" stroke-linejoin="miter" d="M 0.0017514 1.498713 L 1157.304923 1.499144 " stroke="#000000" stroke-width="3" stroke-opacity="1" stroke-miterlimit="4"/></g><g clip-path="url(#c342ebd3d7)"><path stroke-linecap="butt" transform="matrix(-0.0000106829, -0.750603, 0.75, -0.0000106743, 15.556491, 463.065289)" fill="none" stroke-linejoin="miter" d="M -0.00150934 1.497596 L 602.519347 1.50097 " stroke="#000000" stroke-width="3" stroke-opacity="1" stroke-miterlimit="4"/></g><g clip-path="url(#97753bb448)"><path stroke-linecap="butt" transform="matrix(0.749761, 0.00208267, -0.00208333, 0.749997, 116.904773, 563.979211)" fill="none" stroke-linejoin="miter" d="M 0.000932123 1.501681 L 1189.385934 1.500965 " stroke="#000000" stroke-width="3" stroke-opacity="1" stroke-miterlimit="4"/></g><g clip-path="url(#789af4c80c)"><path stroke-linecap="butt" transform="matrix(-0.0000346739, 0.749541, -0.75, -0.0000346951, 1008.941335, 108.675653)" fill="none" stroke-linejoin="miter" d="M 0.000239922 1.499905 L 613.375298 1.49759 " stroke="#000000" stroke-width="3" stroke-opacity="1" stroke-miterlimit="4"/></g></svg>